<svg xmlns="http://www.w3.org/2000/svg" xmlns:xlink="http://www.w3.org/1999/xlink" width="400" zoomAndPan="magnify" viewBox="0 0 300 60" height="80" preserveAspectRatio="xMidYMid meet" version="1.0"><defs><g/></defs><g fill="#f4efe9" fill-opacity="1"><g transform="translate(1.180827, 39.848137)"><g><path d="M 12.628906 0.292969 C 15.929688 0.292969 18.726562 -0.53125 20.109375 -1.296875 L 20.578125 -5.121094 L 20.253906 -5.152344 C 19.109375 -1.972656 16.632812 -0.292969 13.453125 -0.292969 C 7.332031 -0.292969 3.972656 -5.59375 4.003906 -11.128906 C 4.003906 -17.136719 7.625 -20.253906 12.304688 -20.253906 C 15.808594 -20.253906 18.605469 -18.460938 19.753906 -15.78125 L 20.050781 -15.839844 L 19.933594 -19.34375 C 18.785156 -20.078125 15.839844 -20.816406 13.308594 -20.816406 C 6.390625 -20.816406 1.53125 -16.164062 1.53125 -9.890625 C 1.53125 -3.472656 5.859375 0.292969 12.628906 0.292969 Z M 12.628906 0.292969 "/></g></g></g><g fill="#f4efe9" fill-opacity="1"><g transform="translate(25.941151, 39.848137)"><g><path d="M -0.5 0 L 2.828125 0 L 2.828125 -0.382812 C 1.824219 -0.589844 1.707031 -1.558594 2.472656 -3.472656 L 4.210938 -7.773438 L 12.511719 -7.773438 L 14.308594 -3.445312 C 15.25 -1.238281 15.484375 -0.648438 14.574219 -0.382812 L 14.574219 0 L 19.136719 0 L 19.136719 -0.382812 C 18.519531 -0.648438 17.8125 -1.238281 16.898438 -3.445312 L 9.65625 -20.84375 L 7.449219 -19.84375 L 7.714844 -19.226562 C 7.949219 -18.753906 7.980469 -18.371094 7.773438 -17.839844 L 1.972656 -3.472656 C 1.058594 -1.238281 0.324219 -0.648438 -0.5 -0.382812 Z M 4.386719 -8.214844 L 8.300781 -17.902344 L 12.335938 -8.214844 Z M 6.269531 -22.109375 L 6.390625 -21.933594 L 11.070312 -23.464844 C 11.835938 -23.699219 11.984375 -23.9375 11.984375 -24.261719 C 11.984375 -24.640625 11.097656 -25.144531 10.480469 -25.144531 C 10.128906 -25.144531 9.890625 -25.054688 9.214844 -24.496094 Z M 6.269531 -22.109375 "/></g></g></g><g fill="#f4efe9" fill-opacity="1"><g transform="translate(47.757319, 39.848137)"><g><path d="M 8.390625 0.292969 C 11.863281 0.292969 15.28125 -1.941406 15.28125 -5.625 C 15.28125 -8.949219 12.21875 -10.246094 8.949219 -11.542969 C 6.449219 -12.570312 3.414062 -13.691406 3.414062 -16.457031 C 3.414062 -18.960938 5.445312 -20.34375 7.832031 -20.34375 C 11.1875 -20.34375 13.25 -18.519531 14.339844 -15.957031 L 14.632812 -16.046875 L 14.515625 -19.460938 C 13.367188 -20.078125 11.453125 -20.816406 8.773438 -20.816406 C 4.445312 -20.816406 1.589844 -18.636719 1.589844 -15.191406 C 1.589844 -12.070312 3.796875 -10.835938 7.273438 -9.449219 C 9.746094 -8.449219 13.367188 -7.09375 13.367188 -4.152344 C 13.367188 -1.765625 11.335938 -0.234375 8.980469 -0.234375 C 4.886719 -0.234375 2.648438 -2.855469 1.5 -5.945312 L 1.175781 -5.886719 L 1.324219 -1.796875 C 2.707031 -0.792969 5.300781 0.292969 8.390625 0.292969 Z M 8.390625 0.292969 "/></g></g></g><g fill="#f4efe9" fill-opacity="1"><g transform="translate(66.923751, 39.848137)"><g><path d="M -0.5 0 L 2.828125 0 L 2.828125 -0.382812 C 1.824219 -0.589844 1.707031 -1.558594 2.472656 -3.472656 L 4.210938 -7.773438 L 12.511719 -7.773438 L 14.308594 -3.445312 C 15.25 -1.238281 15.484375 -0.648438 14.574219 -0.382812 L 14.574219 0 L 19.136719 0 L 19.136719 -0.382812 C 18.519531 -0.648438 17.8125 -1.238281 16.898438 -3.445312 L 9.65625 -20.84375 L 7.449219 -19.84375 L 7.714844 -19.226562 C 7.949219 -18.753906 7.980469 -18.371094 7.773438 -17.839844 L 1.972656 -3.472656 C 1.058594 -1.238281 0.324219 -0.648438 -0.5 -0.382812 Z M 4.386719 -8.214844 L 8.300781 -17.902344 L 12.335938 -8.214844 Z M 4.386719 -8.214844 "/></g></g></g><g fill="#f4efe9" fill-opacity="1"><g transform="translate(88.73992, 39.848137)"><g><path d="M 5.859375 0 L 10.65625 0 L 10.65625 -0.382812 C 9.746094 -0.648438 9.480469 -1.324219 9.480469 -3.738281 L 9.480469 -20.136719 L 10.863281 -20.136719 C 13.511719 -20.136719 14.660156 -19.429688 15.664062 -17.3125 L 15.988281 -17.371094 L 15.808594 -20.609375 L 0.648438 -20.609375 L 0.472656 -17.371094 L 0.792969 -17.3125 C 1.796875 -19.429688 2.945312 -20.136719 5.59375 -20.136719 L 7.035156 -20.136719 L 7.035156 -3.738281 C 7.035156 -1.324219 6.773438 -0.648438 5.859375 -0.382812 Z M 5.859375 0 "/></g></g></g><g fill="#f4efe9" fill-opacity="1"><g transform="translate(108.171331, 39.848137)"><g><path d="M 1.5 0 L 16.015625 0 L 16.25 -3.914062 L 15.929688 -3.972656 C 14.867188 -1.238281 13.070312 -0.441406 10.246094 -0.441406 L 6.417969 -0.441406 C 5.5625 -0.441406 5.09375 -0.914062 5.09375 -1.765625 L 5.09375 -10.804688 L 8.863281 -10.804688 C 12.21875 -10.804688 13.070312 -10.128906 13.425781 -8.804688 L 13.777344 -8.804688 L 13.777344 -13.25 L 13.425781 -13.25 C 13.070312 -11.921875 12.21875 -11.246094 8.863281 -11.246094 L 5.09375 -11.246094 L 5.09375 -20.167969 L 9.421875 -20.167969 C 12.425781 -20.167969 14.160156 -19.285156 15.191406 -16.691406 L 15.515625 -16.78125 L 15.191406 -20.609375 L 1.5 -20.609375 L 1.5 -20.226562 C 2.382812 -19.960938 2.679688 -19.285156 2.679688 -16.871094 L 2.679688 -3.738281 C 2.679688 -1.324219 2.382812 -0.648438 1.5 -0.382812 Z M 1.5 0 "/></g></g></g><g fill="#f4efe9" fill-opacity="1"><g transform="translate(128.456541, 39.848137)"><g/></g></g><g fill="#f4efe9" fill-opacity="1"><g transform="translate(137.583424, 39.848137)"><g><path d="M 12.628906 0.292969 C 15.929688 0.292969 18.726562 -0.53125 20.109375 -1.296875 L 20.578125 -5.121094 L 20.253906 -5.152344 C 19.109375 -1.972656 16.632812 -0.292969 13.453125 -0.292969 C 7.332031 -0.292969 3.972656 -5.59375 4.003906 -11.128906 C 4.003906 -17.136719 7.625 -20.253906 12.304688 -20.253906 C 15.808594 -20.253906 18.605469 -18.460938 19.753906 -15.78125 L 20.050781 -15.839844 L 19.933594 -19.34375 C 18.785156 -20.078125 15.839844 -20.816406 13.308594 -20.816406 C 6.390625 -20.816406 1.53125 -16.164062 1.53125 -9.890625 C 1.53125 -3.472656 5.859375 0.292969 12.628906 0.292969 Z M 12.628906 0.292969 "/></g></g></g><g fill="#f4efe9" fill-opacity="1"><g transform="translate(162.343748, 39.848137)"><g><path d="M 12.011719 0.292969 C 16.957031 0.292969 22.433594 -2.945312 22.433594 -10.214844 C 22.433594 -17.429688 16.988281 -20.84375 12.011719 -20.84375 C 5.769531 -20.84375 1.53125 -16.371094 1.53125 -10.332031 C 1.53125 -3.03125 7.007812 0.292969 12.011719 0.292969 Z M 3.886719 -12.042969 C 3.710938 -16.839844 6.328125 -20.167969 10.804688 -20.167969 C 16.074219 -20.167969 19.933594 -14.425781 20.136719 -8.273438 C 20.285156 -3.855469 17.960938 -0.441406 13.25 -0.441406 C 7.980469 -0.441406 4.09375 -6.125 3.886719 -12.042969 Z M 3.886719 -12.042969 "/></g></g></g><g fill="#f4efe9" fill-opacity="1"><g transform="translate(189.223867, 39.848137)"><g><path d="M 17.046875 0.234375 L 17.429688 0.234375 L 17.429688 -16.871094 C 17.429688 -19.285156 17.695312 -19.960938 18.605469 -20.226562 L 18.605469 -20.609375 L 14.898438 -20.609375 L 14.898438 -20.226562 C 16.222656 -19.871094 16.929688 -19.046875 16.929688 -15.691406 L 16.929688 -3.945312 L 4.0625 -20.609375 L 1.175781 -20.609375 L 1.175781 -20.226562 C 2.355469 -19.960938 2.707031 -19.285156 2.707031 -16.871094 L 2.707031 -3.738281 C 2.707031 -1.324219 2.414062 -0.648438 1.53125 -0.382812 L 1.53125 0 L 5.210938 0 L 5.210938 -0.382812 C 3.886719 -0.734375 3.179688 -1.558594 3.179688 -4.917969 L 3.179688 -17.8125 Z M 17.046875 0.234375 "/></g></g></g><g fill="#f4efe9" fill-opacity="1"><g transform="translate(211.952716, 39.848137)"><g><path d="M 1.472656 0 L 5.183594 0 L 5.183594 -0.382812 C 3.886719 -0.734375 3.179688 -1.558594 3.179688 -4.917969 L 3.179688 -17.988281 L 10.714844 -5.59375 L 11.277344 -5.59375 L 18.753906 -18.222656 L 18.753906 -3.738281 C 18.753906 -1.324219 18.460938 -0.648438 17.578125 -0.382812 L 17.578125 0 L 22.347656 0 L 22.347656 -0.382812 C 21.433594 -0.648438 21.167969 -1.324219 21.167969 -3.738281 L 21.167969 -15.691406 C 21.167969 -19.046875 21.785156 -19.871094 22.964844 -20.226562 L 22.964844 -20.609375 L 19.636719 -20.609375 L 12.101562 -7.917969 L 4.417969 -20.609375 L 0.855469 -20.609375 L 0.855469 -20.226562 C 2.03125 -19.871094 2.648438 -19.046875 2.648438 -15.691406 L 2.648438 -3.738281 C 2.648438 -1.324219 2.382812 -0.648438 1.472656 -0.382812 Z M 1.472656 0 "/></g></g></g><g fill="#f4efe9" fill-opacity="1"><g transform="translate(239.362776, 39.848137)"><g><path d="M 1.5 0 L 6.269531 0 L 6.269531 -0.382812 C 5.359375 -0.648438 5.09375 -1.324219 5.09375 -3.738281 L 5.09375 -16.871094 C 5.09375 -19.285156 5.359375 -19.960938 6.269531 -20.226562 L 6.269531 -20.609375 L 1.5 -20.609375 L 1.5 -20.226562 C 2.382812 -19.960938 2.679688 -19.285156 2.679688 -16.871094 L 2.679688 -3.738281 C 2.679688 -1.324219 2.382812 -0.648438 1.5 -0.382812 Z M 1.5 0 "/></g></g></g><g fill="#f4efe9" fill-opacity="1"><g transform="translate(250.079498, 39.848137)"><g><path d="M 12.367188 0.292969 C 15.339844 0.292969 18.753906 -1.238281 20.460938 -3.621094 L 20.460938 -9.15625 L 16.605469 -9.15625 L 16.605469 -8.804688 C 17.871094 -8.480469 18.105469 -7.773438 18.105469 -5.945312 L 18.136719 -2.945312 C 17.398438 -1.472656 15.484375 -0.292969 13.277344 -0.292969 C 7.332031 -0.292969 3.855469 -6.390625 3.914062 -11.953125 C 3.972656 -17.371094 7.152344 -20.285156 11.394531 -20.285156 C 14.839844 -20.285156 17.546875 -18.28125 18.636719 -15.75 L 18.929688 -15.808594 L 18.8125 -19.285156 C 17.664062 -20.050781 14.867188 -20.816406 12.246094 -20.816406 C 5.945312 -20.816406 1.53125 -16.074219 1.53125 -10.15625 C 1.53125 -3.828125 5.800781 0.292969 12.367188 0.292969 Z M 12.367188 0.292969 "/></g></g></g><g fill="#f4efe9" fill-opacity="1"><g transform="translate(274.869261, 39.848137)"><g><path d="M 12.011719 0.292969 C 16.957031 0.292969 22.433594 -2.945312 22.433594 -10.214844 C 22.433594 -17.429688 16.988281 -20.84375 12.011719 -20.84375 C 5.769531 -20.84375 1.53125 -16.371094 1.53125 -10.332031 C 1.53125 -3.03125 7.007812 0.292969 12.011719 0.292969 Z M 3.886719 -12.042969 C 3.710938 -16.839844 6.328125 -20.167969 10.804688 -20.167969 C 16.074219 -20.167969 19.933594 -14.425781 20.136719 -8.273438 C 20.285156 -3.855469 17.960938 -0.441406 13.25 -0.441406 C 7.980469 -0.441406 4.09375 -6.125 3.886719 -12.042969 Z M 3.886719 -12.042969 "/></g></g></g></svg>